<svg width="402" height="874" viewBox="0 0 402 874" fill="none" xmlns="http://www.w3.org/2000/svg">
<g clip-path="url(#clip0_460_387)">
<rect width="402" height="874" fill="black"/>
<path d="M210 189C210 225.451 183.585 255 151 255C118.415 255 92 225.451 92 189C92 152.549 118.415 123 151 123C183.585 123 210 152.549 210 189ZM109.735 189C109.735 214.494 128.21 235.161 151 235.161C173.79 235.161 192.265 214.494 192.265 189C192.265 163.506 173.79 142.839 151 142.839C128.21 142.839 109.735 163.506 109.735 189Z" fill="url(#paint0_linear_460_387)"/>
<path d="M210 427C210 463.451 183.585 493 151 493C118.415 493 92 463.451 92 427C92 390.549 118.415 361 151 361C183.585 361 210 390.549 210 427ZM109.735 427C109.735 452.494 128.21 473.161 151 473.161C173.79 473.161 192.265 452.494 192.265 427C192.265 401.506 173.79 380.839 151 380.839C128.21 380.839 109.735 401.506 109.735 427Z" fill="url(#paint1_linear_460_387)"/>
<path d="M210 656C210 692.451 183.585 722 151 722C118.415 722 92 692.451 92 656C92 619.549 118.415 590 151 590C183.585 590 210 619.549 210 656ZM109.735 656C109.735 681.494 128.21 702.161 151 702.161C173.79 702.161 192.265 681.494 192.265 656C192.265 630.506 173.79 609.839 151 609.839C128.21 609.839 109.735 630.506 109.735 656Z" fill="url(#paint2_linear_460_387)"/>
<rect x="234.015" y="600.037" width="25" height="67.6452" transform="rotate(-90.0301 234.015 600.037)" fill="url(#paint3_linear_460_387)"/>
<rect x="227.604" y="575.209" width="25" height="97.6635" transform="rotate(0.354372 227.604 575.209)" fill="url(#paint4_linear_460_387)"/>
<rect x="227.001" y="675.867" width="25" height="62.1684" transform="rotate(-89.119 227.001 675.867)" fill="url(#paint5_linear_460_387)"/>
<rect x="265.315" y="664" width="25" height="73.4151" transform="rotate(0.220332 265.315 664)" fill="url(#paint6_linear_460_387)"/>
<rect x="289.367" y="725.5" width="25" height="62.1684" transform="rotate(90.4603 289.367 725.5)" fill="url(#paint7_linear_460_387)"/>
<rect x="214" y="148.029" width="25" height="92.1232" transform="rotate(-0.0673202 214 148.029)" fill="url(#paint8_linear_460_387)"/>
<rect x="214" y="123" width="25" height="25" fill="url(#paint9_linear_460_387)"/>
<rect x="288.507" y="256.492" width="25" height="44.6271" transform="rotate(-2.25672 288.507 256.492)" fill="url(#paint10_linear_460_387)"/>
<rect x="330.107" y="241.131" width="25" height="115.869" transform="rotate(90.5595 330.107 241.131)" fill="url(#paint11_linear_460_387)"/>
<rect x="236.065" y="124" width="151.858" height="25" transform="rotate(57.418 236.065 124)" fill="url(#paint12_linear_460_387)"/>
<rect x="227" y="378.029" width="25" height="92.1232" transform="rotate(-0.0673202 227 378.029)" fill="url(#paint13_linear_460_387)"/>
<rect x="227" y="353" width="25" height="25" fill="url(#paint14_linear_460_387)"/>
<rect x="301.507" y="486.492" width="25" height="44.6271" transform="rotate(-2.25672 301.507 486.492)" fill="url(#paint15_linear_460_387)"/>
<rect x="343.107" y="471.131" width="25" height="115.869" transform="rotate(90.5595 343.107 471.131)" fill="url(#paint16_linear_460_387)"/>
<rect x="249.065" y="354" width="151.858" height="25" transform="rotate(57.418 249.065 354)" fill="url(#paint17_linear_460_387)"/>
<mask id="path-19-outside-1_460_387" maskUnits="userSpaceOnUse" x="119" y="172" width="164" height="545" fill="black">
<rect fill="white" x="119" y="172" width="164" height="545"/>
<path d="M181.596 249.536C176.476 249.536 171.868 248.725 167.772 247.104C163.676 245.483 160.433 243.093 158.044 239.936C155.654 236.779 154.46 232.981 154.46 228.544C154.46 223.936 155.654 219.968 158.044 216.64C160.518 213.227 164.401 210.624 169.692 208.832C174.982 206.955 181.98 206.016 190.684 206.016H213.724C218.161 206.016 222.001 206.229 225.244 206.656C228.486 207.083 231.302 207.765 233.692 208.704C236.166 209.557 238.385 210.752 240.348 212.288C242.566 213.995 244.316 216.256 245.596 219.072C246.876 221.803 247.516 224.96 247.516 228.544C247.516 235.029 245.553 240.064 241.628 243.648C237.788 247.232 232.326 249.024 225.244 249.024C223.281 249.024 221.148 248.896 218.844 248.64C216.54 248.384 214.406 247.957 212.444 247.36L214.876 238.784C216.156 239.125 217.606 239.424 219.228 239.68C220.934 239.936 222.598 240.064 224.22 240.064C228.23 240.064 231.26 239.083 233.308 237.12C235.441 235.157 236.508 232.128 236.508 228.032C236.508 225.131 235.868 222.827 234.588 221.12C233.308 219.328 231.601 218.005 229.468 217.152C227.42 216.299 225.073 215.744 222.428 215.488C219.868 215.147 217.265 214.976 214.62 214.976H189.788C185.436 214.976 181.724 215.232 178.652 215.744C175.665 216.256 173.105 217.109 170.972 218.304C169.094 219.413 167.686 220.779 166.748 222.4C165.894 223.936 165.468 225.941 165.468 228.416C165.468 232.341 167.089 235.328 170.332 237.376C173.574 239.339 177.67 240.32 182.62 240.32C186.374 240.32 189.574 239.765 192.22 238.656C194.95 237.461 197.041 235.456 198.492 232.64C200.028 229.824 200.796 225.856 200.796 220.736V186.304H178.78V209.344L168.668 211.392V177.088H235.612V186.304H211.676V219.072C211.676 224.789 211.164 229.269 210.14 232.512C209.201 235.755 207.836 238.485 206.044 240.704C203.398 243.947 199.985 246.251 195.804 247.616C191.708 248.896 186.972 249.536 181.596 249.536ZM149.31 480.536C144.787 480.536 140.648 479.427 136.894 477.208C133.139 474.904 130.152 471.363 127.934 466.584C125.8 461.805 124.734 455.576 124.734 447.896C124.734 438.765 126.526 431.128 130.11 424.984C133.779 418.84 138.6 414.232 144.574 411.16C150.547 408.088 157.032 406.552 164.03 406.552C170.515 406.552 176.062 407.533 180.67 409.496C185.363 411.373 189.16 414.019 192.062 417.432C195.048 420.76 197.224 424.643 198.59 429.08C200.04 433.432 200.766 438.125 200.766 443.16C200.766 448.621 200.168 453.485 198.974 457.752C197.779 462.019 196.328 466.029 194.622 469.784H228.798V408.088H239.806V479H183.358L182.846 470.936C184.808 467.949 186.387 464.28 187.582 459.928C188.862 455.491 189.502 450.371 189.502 444.568C189.502 438.509 188.435 433.347 186.302 429.08C184.168 424.813 181.139 421.571 177.214 419.352C173.374 417.133 168.808 416.024 163.518 416.024C157.544 416.024 152.424 417.475 148.158 420.376C143.891 423.192 140.606 427.075 138.302 432.024C135.998 436.888 134.846 442.435 134.846 448.664C134.846 454.381 135.486 458.947 136.766 462.36C138.131 465.688 139.923 468.12 142.142 469.656C144.446 471.107 147.006 471.832 149.822 471.832C152.04 471.832 153.96 471.363 155.582 470.424C157.288 469.4 158.611 467.949 159.55 466.072C160.488 464.195 160.958 461.891 160.958 459.16C160.958 454.893 159.848 451.651 157.63 449.432C155.411 447.128 152.552 445.976 149.054 445.976C145.64 445.976 142.44 446.872 139.454 448.664C136.467 450.456 133.736 452.717 131.262 455.448L129.342 447.256C131.902 444.269 135.059 441.837 138.814 439.96C142.654 437.997 146.664 437.016 150.846 437.016C156.99 437.016 161.939 438.893 165.694 442.648C169.534 446.403 171.454 451.48 171.454 457.88C171.454 462.573 170.558 466.627 168.766 470.04C166.974 473.453 164.414 476.056 161.086 477.848C157.843 479.64 153.918 480.536 149.31 480.536ZM234.422 371.096C239.798 371.096 244.705 371.821 249.142 373.272C253.495 374.723 257.463 376.941 261.047 379.928C263.436 381.891 265.527 384.365 267.319 387.352C269.196 390.253 270.647 394.051 271.671 398.744C272.78 403.352 273.335 409.24 273.335 416.408V479H262.327V419.992C262.327 413.251 261.943 407.789 261.175 403.608C260.492 399.341 259.425 395.971 257.975 393.496C256.609 390.936 254.945 388.803 252.983 387.096C250.593 384.877 247.777 383.256 244.534 382.232C241.292 381.208 238.006 380.696 234.678 380.696C230.07 380.696 226.145 381.464 222.902 383C219.66 384.536 217.185 386.712 215.478 389.528C213.686 392.344 212.79 395.715 212.79 399.64C212.79 402.712 213.217 405.443 214.07 407.832C214.838 410.136 215.99 412.141 217.526 413.848C219.062 415.469 220.94 416.792 223.158 417.816C225.292 418.84 227.681 419.565 230.326 419.992V429.08C225.036 428.483 220.214 426.989 215.862 424.6C211.51 422.211 208.097 418.925 205.622 414.744C203.062 410.563 201.782 405.485 201.782 399.512C201.782 393.197 203.276 387.949 206.262 383.768C209.164 379.587 213.089 376.429 218.038 374.296C222.988 372.163 228.449 371.096 234.422 371.096ZM153.872 711.536C149.349 711.536 145.211 710.427 141.456 708.208C137.701 705.904 134.715 702.363 132.496 697.584C130.363 692.805 129.296 686.576 129.296 678.896C129.296 670.448 131.131 663.152 134.8 657.008C138.555 650.779 143.803 646 150.544 642.672C157.285 639.259 165.179 637.552 174.224 637.552C178.32 637.552 182.203 637.893 185.872 638.576C189.627 639.173 193.211 640.155 196.624 641.52C200.037 642.8 203.408 644.507 206.736 646.64L212.624 652.016C217.147 656.027 220.773 660.933 223.504 666.736C226.235 672.453 227.6 678.811 227.6 685.808C227.6 691.525 226.747 696.304 225.04 700.144C223.419 703.899 221.029 706.757 217.872 708.72C214.8 710.597 211.131 711.536 206.864 711.536C201.915 711.536 197.861 710.427 194.704 708.208C191.632 705.989 189.328 703.003 187.792 699.248C186.341 695.408 185.616 691.056 185.616 686.192C185.616 681.669 186.085 677.403 187.024 673.392C188.048 669.381 189.541 665.584 191.504 662C193.467 658.416 195.899 655.045 198.8 651.888L205.2 646.64C207.76 645.104 210.491 643.781 213.392 642.672C216.293 641.563 219.792 640.709 223.888 640.112C228.069 639.429 233.275 639.088 239.504 639.088H277.776V648.304H256.016V710H245.008V648.304H236.56C233.744 648.304 231.099 648.432 228.624 648.688C226.149 648.859 223.803 649.2 221.584 649.712C219.365 650.139 217.232 650.779 215.184 651.632C213.136 652.485 211.131 653.595 209.168 654.96C206.352 656.752 204.005 659.312 202.128 662.64C200.251 665.883 198.8 669.552 197.776 673.648C196.837 677.659 196.368 681.712 196.368 685.808C196.368 691.696 197.264 696.005 199.056 698.736C200.848 701.467 203.323 702.832 206.48 702.832C209.125 702.832 211.173 702.021 212.624 700.4C214.16 698.779 215.227 696.731 215.824 694.256C216.421 691.781 216.72 689.264 216.72 686.704C216.72 679.963 215.397 673.904 212.752 668.528C210.192 663.067 206.437 658.416 201.488 654.576C197.477 651.76 193.083 649.797 188.304 648.688C183.525 647.579 178.405 647.024 172.944 647.024C166.629 647.024 161.125 648.176 156.432 650.48C151.739 652.784 147.984 655.941 145.168 659.952C142.437 663.963 140.645 668.571 139.792 673.776C139.707 675.056 139.621 676.293 139.536 677.488C139.451 678.597 139.408 679.493 139.408 680.176C139.408 685.723 140.048 690.16 141.328 693.488C142.693 696.816 144.485 699.205 146.704 700.656C149.008 702.107 151.568 702.832 154.384 702.832C156.688 702.832 158.651 702.363 160.272 701.424C161.979 700.4 163.259 698.949 164.112 697.072C165.051 695.195 165.52 692.891 165.52 690.16C165.52 685.893 164.411 682.651 162.192 680.432C159.973 678.128 157.115 676.976 153.616 676.976C150.203 676.976 147.003 677.872 144.016 679.664C141.029 681.456 138.299 683.717 135.824 686.448L133.904 678.256C136.464 675.269 139.621 672.837 143.376 670.96C147.216 668.997 151.227 668.016 155.408 668.016C161.552 668.016 166.501 669.893 170.256 673.648C174.096 677.403 176.016 682.48 176.016 688.88C176.016 693.573 175.12 697.627 173.328 701.04C171.536 704.453 168.976 707.056 165.648 708.848C162.405 710.64 158.48 711.536 153.872 711.536ZM201.104 623.216C198.629 623.216 196.581 622.448 194.96 620.912C193.339 619.291 192.528 617.2 192.528 614.64C192.528 612.165 193.339 610.117 194.96 608.496C196.581 606.875 198.629 606.064 201.104 606.064C203.579 606.064 205.627 606.875 207.248 608.496C208.869 610.117 209.68 612.165 209.68 614.64C209.68 617.2 208.869 619.291 207.248 620.912C205.627 622.448 203.579 623.216 201.104 623.216Z"/>
</mask>
<path d="M181.596 249.536C176.476 249.536 171.868 248.725 167.772 247.104C163.676 245.483 160.433 243.093 158.044 239.936C155.654 236.779 154.46 232.981 154.46 228.544C154.46 223.936 155.654 219.968 158.044 216.64C160.518 213.227 164.401 210.624 169.692 208.832C174.982 206.955 181.98 206.016 190.684 206.016H213.724C218.161 206.016 222.001 206.229 225.244 206.656C228.486 207.083 231.302 207.765 233.692 208.704C236.166 209.557 238.385 210.752 240.348 212.288C242.566 213.995 244.316 216.256 245.596 219.072C246.876 221.803 247.516 224.96 247.516 228.544C247.516 235.029 245.553 240.064 241.628 243.648C237.788 247.232 232.326 249.024 225.244 249.024C223.281 249.024 221.148 248.896 218.844 248.64C216.54 248.384 214.406 247.957 212.444 247.36L214.876 238.784C216.156 239.125 217.606 239.424 219.228 239.68C220.934 239.936 222.598 240.064 224.22 240.064C228.23 240.064 231.26 239.083 233.308 237.12C235.441 235.157 236.508 232.128 236.508 228.032C236.508 225.131 235.868 222.827 234.588 221.12C233.308 219.328 231.601 218.005 229.468 217.152C227.42 216.299 225.073 215.744 222.428 215.488C219.868 215.147 217.265 214.976 214.62 214.976H189.788C185.436 214.976 181.724 215.232 178.652 215.744C175.665 216.256 173.105 217.109 170.972 218.304C169.094 219.413 167.686 220.779 166.748 222.4C165.894 223.936 165.468 225.941 165.468 228.416C165.468 232.341 167.089 235.328 170.332 237.376C173.574 239.339 177.67 240.32 182.62 240.32C186.374 240.32 189.574 239.765 192.22 238.656C194.95 237.461 197.041 235.456 198.492 232.64C200.028 229.824 200.796 225.856 200.796 220.736V186.304H178.78V209.344L168.668 211.392V177.088H235.612V186.304H211.676V219.072C211.676 224.789 211.164 229.269 210.14 232.512C209.201 235.755 207.836 238.485 206.044 240.704C203.398 243.947 199.985 246.251 195.804 247.616C191.708 248.896 186.972 249.536 181.596 249.536ZM149.31 480.536C144.787 480.536 140.648 479.427 136.894 477.208C133.139 474.904 130.152 471.363 127.934 466.584C125.8 461.805 124.734 455.576 124.734 447.896C124.734 438.765 126.526 431.128 130.11 424.984C133.779 418.84 138.6 414.232 144.574 411.16C150.547 408.088 157.032 406.552 164.03 406.552C170.515 406.552 176.062 407.533 180.67 409.496C185.363 411.373 189.16 414.019 192.062 417.432C195.048 420.76 197.224 424.643 198.59 429.08C200.04 433.432 200.766 438.125 200.766 443.16C200.766 448.621 200.168 453.485 198.974 457.752C197.779 462.019 196.328 466.029 194.622 469.784H228.798V408.088H239.806V479H183.358L182.846 470.936C184.808 467.949 186.387 464.28 187.582 459.928C188.862 455.491 189.502 450.371 189.502 444.568C189.502 438.509 188.435 433.347 186.302 429.08C184.168 424.813 181.139 421.571 177.214 419.352C173.374 417.133 168.808 416.024 163.518 416.024C157.544 416.024 152.424 417.475 148.158 420.376C143.891 423.192 140.606 427.075 138.302 432.024C135.998 436.888 134.846 442.435 134.846 448.664C134.846 454.381 135.486 458.947 136.766 462.36C138.131 465.688 139.923 468.12 142.142 469.656C144.446 471.107 147.006 471.832 149.822 471.832C152.04 471.832 153.96 471.363 155.582 470.424C157.288 469.4 158.611 467.949 159.55 466.072C160.488 464.195 160.958 461.891 160.958 459.16C160.958 454.893 159.848 451.651 157.63 449.432C155.411 447.128 152.552 445.976 149.054 445.976C145.64 445.976 142.44 446.872 139.454 448.664C136.467 450.456 133.736 452.717 131.262 455.448L129.342 447.256C131.902 444.269 135.059 441.837 138.814 439.96C142.654 437.997 146.664 437.016 150.846 437.016C156.99 437.016 161.939 438.893 165.694 442.648C169.534 446.403 171.454 451.48 171.454 457.88C171.454 462.573 170.558 466.627 168.766 470.04C166.974 473.453 164.414 476.056 161.086 477.848C157.843 479.64 153.918 480.536 149.31 480.536ZM234.422 371.096C239.798 371.096 244.705 371.821 249.142 373.272C253.495 374.723 257.463 376.941 261.047 379.928C263.436 381.891 265.527 384.365 267.319 387.352C269.196 390.253 270.647 394.051 271.671 398.744C272.78 403.352 273.335 409.24 273.335 416.408V479H262.327V419.992C262.327 413.251 261.943 407.789 261.175 403.608C260.492 399.341 259.425 395.971 257.975 393.496C256.609 390.936 254.945 388.803 252.983 387.096C250.593 384.877 247.777 383.256 244.534 382.232C241.292 381.208 238.006 380.696 234.678 380.696C230.07 380.696 226.145 381.464 222.902 383C219.66 384.536 217.185 386.712 215.478 389.528C213.686 392.344 212.79 395.715 212.79 399.64C212.79 402.712 213.217 405.443 214.07 407.832C214.838 410.136 215.99 412.141 217.526 413.848C219.062 415.469 220.94 416.792 223.158 417.816C225.292 418.84 227.681 419.565 230.326 419.992V429.08C225.036 428.483 220.214 426.989 215.862 424.6C211.51 422.211 208.097 418.925 205.622 414.744C203.062 410.563 201.782 405.485 201.782 399.512C201.782 393.197 203.276 387.949 206.262 383.768C209.164 379.587 213.089 376.429 218.038 374.296C222.988 372.163 228.449 371.096 234.422 371.096ZM153.872 711.536C149.349 711.536 145.211 710.427 141.456 708.208C137.701 705.904 134.715 702.363 132.496 697.584C130.363 692.805 129.296 686.576 129.296 678.896C129.296 670.448 131.131 663.152 134.8 657.008C138.555 650.779 143.803 646 150.544 642.672C157.285 639.259 165.179 637.552 174.224 637.552C178.32 637.552 182.203 637.893 185.872 638.576C189.627 639.173 193.211 640.155 196.624 641.52C200.037 642.8 203.408 644.507 206.736 646.64L212.624 652.016C217.147 656.027 220.773 660.933 223.504 666.736C226.235 672.453 227.6 678.811 227.6 685.808C227.6 691.525 226.747 696.304 225.04 700.144C223.419 703.899 221.029 706.757 217.872 708.72C214.8 710.597 211.131 711.536 206.864 711.536C201.915 711.536 197.861 710.427 194.704 708.208C191.632 705.989 189.328 703.003 187.792 699.248C186.341 695.408 185.616 691.056 185.616 686.192C185.616 681.669 186.085 677.403 187.024 673.392C188.048 669.381 189.541 665.584 191.504 662C193.467 658.416 195.899 655.045 198.8 651.888L205.2 646.64C207.76 645.104 210.491 643.781 213.392 642.672C216.293 641.563 219.792 640.709 223.888 640.112C228.069 639.429 233.275 639.088 239.504 639.088H277.776V648.304H256.016V710H245.008V648.304H236.56C233.744 648.304 231.099 648.432 228.624 648.688C226.149 648.859 223.803 649.2 221.584 649.712C219.365 650.139 217.232 650.779 215.184 651.632C213.136 652.485 211.131 653.595 209.168 654.96C206.352 656.752 204.005 659.312 202.128 662.64C200.251 665.883 198.8 669.552 197.776 673.648C196.837 677.659 196.368 681.712 196.368 685.808C196.368 691.696 197.264 696.005 199.056 698.736C200.848 701.467 203.323 702.832 206.48 702.832C209.125 702.832 211.173 702.021 212.624 700.4C214.16 698.779 215.227 696.731 215.824 694.256C216.421 691.781 216.72 689.264 216.72 686.704C216.72 679.963 215.397 673.904 212.752 668.528C210.192 663.067 206.437 658.416 201.488 654.576C197.477 651.76 193.083 649.797 188.304 648.688C183.525 647.579 178.405 647.024 172.944 647.024C166.629 647.024 161.125 648.176 156.432 650.48C151.739 652.784 147.984 655.941 145.168 659.952C142.437 663.963 140.645 668.571 139.792 673.776C139.707 675.056 139.621 676.293 139.536 677.488C139.451 678.597 139.408 679.493 139.408 680.176C139.408 685.723 140.048 690.16 141.328 693.488C142.693 696.816 144.485 699.205 146.704 700.656C149.008 702.107 151.568 702.832 154.384 702.832C156.688 702.832 158.651 702.363 160.272 701.424C161.979 700.4 163.259 698.949 164.112 697.072C165.051 695.195 165.52 692.891 165.52 690.16C165.52 685.893 164.411 682.651 162.192 680.432C159.973 678.128 157.115 676.976 153.616 676.976C150.203 676.976 147.003 677.872 144.016 679.664C141.029 681.456 138.299 683.717 135.824 686.448L133.904 678.256C136.464 675.269 139.621 672.837 143.376 670.96C147.216 668.997 151.227 668.016 155.408 668.016C161.552 668.016 166.501 669.893 170.256 673.648C174.096 677.403 176.016 682.48 176.016 688.88C176.016 693.573 175.12 697.627 173.328 701.04C171.536 704.453 168.976 707.056 165.648 708.848C162.405 710.64 158.48 711.536 153.872 711.536ZM201.104 623.216C198.629 623.216 196.581 622.448 194.96 620.912C193.339 619.291 192.528 617.2 192.528 614.64C192.528 612.165 193.339 610.117 194.96 608.496C196.581 606.875 198.629 606.064 201.104 606.064C203.579 606.064 205.627 606.875 207.248 608.496C208.869 610.117 209.68 612.165 209.68 614.64C209.68 617.2 208.869 619.291 207.248 620.912C205.627 622.448 203.579 623.216 201.104 623.216Z" fill="url(#paint18_linear_460_387)"/>
<path d="M167.772 247.104L169.612 242.455L169.612 242.455L167.772 247.104ZM158.044 239.936L162.031 236.919L162.031 236.919L158.044 239.936ZM158.044 216.64L153.995 213.705L153.989 213.715L153.982 213.724L158.044 216.64ZM169.692 208.832L171.296 213.568L171.33 213.556L171.364 213.544L169.692 208.832ZM225.244 206.656L225.896 201.699L225.896 201.699L225.244 206.656ZM233.692 208.704L231.863 213.358L231.962 213.396L232.062 213.431L233.692 208.704ZM240.348 212.288L237.266 216.226L237.282 216.238L237.299 216.251L240.348 212.288ZM245.596 219.072L241.044 221.141L241.056 221.168L241.068 221.194L245.596 219.072ZM241.628 243.648L238.256 239.956L238.236 239.974L238.216 239.993L241.628 243.648ZM218.844 248.64L218.291 253.609L218.844 248.64ZM212.444 247.36L207.633 245.996L206.295 250.715L210.988 252.143L212.444 247.36ZM214.876 238.784L216.164 233.953L211.408 232.685L210.065 237.42L214.876 238.784ZM219.228 239.68L218.448 244.619L218.467 244.622L218.486 244.625L219.228 239.68ZM233.308 237.12L229.922 233.44L229.885 233.475L229.848 233.51L233.308 237.12ZM234.588 221.12L230.519 224.026L230.553 224.073L230.588 224.12L234.588 221.12ZM229.468 217.152L227.544 221.767L227.577 221.781L227.611 221.794L229.468 217.152ZM222.428 215.488L221.767 220.444L221.856 220.456L221.946 220.465L222.428 215.488ZM178.652 215.744L177.83 210.812L177.818 210.814L177.807 210.816L178.652 215.744ZM170.972 218.304L168.528 213.941L168.478 213.97L168.428 213.999L170.972 218.304ZM166.748 222.4L162.42 219.895L162.398 219.933L162.377 219.972L166.748 222.4ZM170.332 237.376L167.662 241.603L167.702 241.629L167.742 241.653L170.332 237.376ZM192.22 238.656L194.153 243.267L194.188 243.252L194.224 243.237L192.22 238.656ZM198.492 232.64L194.102 230.246L194.074 230.298L194.047 230.35L198.492 232.64ZM200.796 186.304H205.796V181.304H200.796V186.304ZM178.78 186.304V181.304H173.78V186.304H178.78ZM178.78 209.344L179.772 214.245L183.78 213.433V209.344H178.78ZM168.668 211.392H163.668V217.506L169.66 216.293L168.668 211.392ZM168.668 177.088V172.088H163.668V177.088H168.668ZM235.612 177.088H240.612V172.088H235.612V177.088ZM235.612 186.304V191.304H240.612V186.304H235.612ZM211.676 186.304V181.304H206.676V186.304H211.676ZM210.14 232.512L205.372 231.006L205.353 231.064L205.337 231.122L210.14 232.512ZM206.044 240.704L209.918 243.865L209.926 243.855L209.933 243.846L206.044 240.704ZM195.804 247.616L197.295 252.388L197.325 252.379L197.356 252.369L195.804 247.616ZM181.596 249.536V244.536C177.005 244.536 173.035 243.81 169.612 242.455L167.772 247.104L165.931 251.753C170.7 253.641 175.946 254.536 181.596 254.536V249.536ZM167.772 247.104L169.612 242.455C166.269 241.132 163.807 239.266 162.031 236.919L158.044 239.936L154.056 242.953C157.059 246.921 161.082 249.834 165.931 251.753L167.772 247.104ZM158.044 239.936L162.031 236.919C160.377 234.734 159.46 232.03 159.46 228.544H154.46H149.46C149.46 233.932 150.931 238.823 154.056 242.953L158.044 239.936ZM154.46 228.544H159.46C159.46 224.846 160.401 221.93 162.105 219.556L158.044 216.64L153.982 213.724C150.907 218.006 149.46 223.026 149.46 228.544H154.46ZM158.044 216.64L162.092 219.575C163.788 217.235 166.671 215.134 171.296 213.568L169.692 208.832L168.087 204.096C162.131 206.114 157.248 209.218 153.995 213.705L158.044 216.64ZM169.692 208.832L171.364 213.544C175.906 211.932 182.271 211.016 190.684 211.016V206.016V201.016C181.688 201.016 174.058 201.977 168.019 204.12L169.692 208.832ZM190.684 206.016V211.016H213.724V206.016V201.016H190.684V206.016ZM213.724 206.016V211.016C218.014 211.016 221.626 211.223 224.591 211.613L225.244 206.656L225.896 201.699C222.376 201.236 218.308 201.016 213.724 201.016V206.016ZM225.244 206.656L224.591 211.613C227.535 212.001 229.939 212.602 231.863 213.358L233.692 208.704L235.52 204.05C232.666 202.929 229.437 202.165 225.896 201.699L225.244 206.656ZM233.692 208.704L232.062 213.431C234.039 214.113 235.762 215.048 237.266 216.226L240.348 212.288L243.429 208.35C241.008 206.456 238.294 205.002 235.321 203.977L233.692 208.704ZM240.348 212.288L237.299 216.251C238.803 217.408 240.066 218.99 241.044 221.141L245.596 219.072L250.147 217.003C248.565 213.522 246.329 210.581 243.396 208.325L240.348 212.288ZM245.596 219.072L241.068 221.194C241.984 223.147 242.516 225.557 242.516 228.544H247.516H252.516C252.516 224.363 251.767 220.458 250.123 216.95L245.596 219.072ZM247.516 228.544H242.516C242.516 233.958 240.921 237.523 238.256 239.956L241.628 243.648L244.999 247.34C250.185 242.605 252.516 236.1 252.516 228.544H247.516ZM241.628 243.648L238.216 239.993C235.585 242.448 231.509 244.024 225.244 244.024V249.024V254.024C233.143 254.024 239.99 252.016 245.039 247.303L241.628 243.648ZM225.244 249.024V244.024C223.495 244.024 221.548 243.91 219.396 243.671L218.844 248.64L218.291 253.609C220.747 253.882 223.067 254.024 225.244 254.024V249.024ZM218.844 248.64L219.396 243.671C217.359 243.444 215.532 243.074 213.899 242.577L212.444 247.36L210.988 252.143C213.28 252.841 215.72 253.324 218.291 253.609L218.844 248.64ZM212.444 247.36L217.254 248.724L219.686 240.148L214.876 238.784L210.065 237.42L207.633 245.996L212.444 247.36ZM214.876 238.784L213.587 243.615C215.069 244.01 216.694 244.342 218.448 244.619L219.228 239.68L220.007 234.741C218.519 234.506 217.242 234.24 216.164 233.953L214.876 238.784ZM219.228 239.68L218.486 244.625C220.422 244.915 222.335 245.064 224.22 245.064V240.064V235.064C222.862 235.064 221.446 234.957 219.969 234.735L219.228 239.68ZM224.22 240.064V245.064C228.983 245.064 233.462 243.897 236.767 240.73L233.308 237.12L229.848 233.51C229.057 234.268 227.477 235.064 224.22 235.064V240.064ZM233.308 237.12L236.693 240.8C240.222 237.553 241.508 232.935 241.508 228.032H236.508H231.508C231.508 231.321 230.659 232.762 229.922 233.44L233.308 237.12ZM236.508 228.032H241.508C241.508 224.433 240.714 220.956 238.587 218.12L234.588 221.12L230.588 224.12C231.021 224.697 231.508 225.828 231.508 228.032H236.508ZM234.588 221.12L238.656 218.214C236.795 215.609 234.305 213.702 231.324 212.51L229.468 217.152L227.611 221.794C228.896 222.309 229.82 223.047 230.519 224.026L234.588 221.12ZM229.468 217.152L231.391 212.537C228.802 211.458 225.955 210.806 222.909 210.511L222.428 215.488L221.946 220.465C224.19 220.682 226.037 221.139 227.544 221.767L229.468 217.152ZM222.428 215.488L223.088 210.532C220.304 210.161 217.48 209.976 214.62 209.976V214.976V219.976C217.049 219.976 219.431 220.133 221.767 220.444L222.428 215.488ZM214.62 214.976V209.976H189.788V214.976V219.976H214.62V214.976ZM189.788 214.976V209.976C185.259 209.976 181.256 210.241 177.83 210.812L178.652 215.744L179.473 220.676C182.191 220.223 185.612 219.976 189.788 219.976V214.976ZM178.652 215.744L177.807 210.816C174.388 211.402 171.261 212.411 168.528 213.941L170.972 218.304L173.415 222.667C174.949 221.807 176.942 221.11 179.496 220.672L178.652 215.744ZM170.972 218.304L168.428 213.999C165.934 215.473 163.855 217.417 162.42 219.895L166.748 222.4L171.075 224.905C171.517 224.141 172.255 223.353 173.515 222.609L170.972 218.304ZM166.748 222.4L162.377 219.972C160.976 222.492 160.468 225.42 160.468 228.416H165.468H170.468C170.468 226.463 170.812 225.38 171.118 224.828L166.748 222.4ZM165.468 228.416H160.468C160.468 234.008 162.927 238.613 167.662 241.603L170.332 237.376L173.001 233.149C171.25 232.043 170.468 230.675 170.468 228.416H165.468ZM170.332 237.376L167.742 241.653C171.97 244.213 177.03 245.32 182.62 245.32V240.32V235.32C178.31 235.32 175.178 234.465 172.921 233.098L170.332 237.376ZM182.62 240.32V245.32C186.843 245.32 190.738 244.699 194.153 243.267L192.22 238.656L190.286 234.045C188.41 234.832 185.905 235.32 182.62 235.32V240.32ZM192.22 238.656L194.224 243.237C198.076 241.551 200.995 238.698 202.936 234.93L198.492 232.64L194.047 230.35C193.087 232.214 191.824 233.371 190.215 234.075L192.22 238.656ZM198.492 232.64L202.881 235.034C204.988 231.171 205.796 226.244 205.796 220.736H200.796H195.796C195.796 225.468 195.067 228.477 194.102 230.246L198.492 232.64ZM200.796 220.736H205.796V186.304H200.796H195.796V220.736H200.796ZM200.796 186.304V181.304H178.78V186.304V191.304H200.796V186.304ZM178.78 186.304H173.78V209.344H178.78H183.78V186.304H178.78ZM178.78 209.344L177.787 204.443L167.675 206.491L168.668 211.392L169.66 216.293L179.772 214.245L178.78 209.344ZM168.668 211.392H173.668V177.088H168.668H163.668V211.392H168.668ZM168.668 177.088V182.088H235.612V177.088V172.088H168.668V177.088ZM235.612 177.088H230.612V186.304H235.612H240.612V177.088H235.612ZM235.612 186.304V181.304H211.676V186.304V191.304H235.612V186.304ZM211.676 186.304H206.676V219.072H211.676H216.676V186.304H211.676ZM211.676 219.072H206.676C206.676 224.576 206.172 228.471 205.372 231.006L210.14 232.512L214.907 234.018C216.155 230.068 216.676 225.003 216.676 219.072H211.676ZM210.14 232.512L205.337 231.122C204.55 233.841 203.459 235.947 202.154 237.562L206.044 240.704L209.933 243.846C212.212 241.024 213.852 237.668 214.942 233.902L210.14 232.512ZM206.044 240.704L202.169 237.543C200.161 240.005 197.571 241.779 194.251 242.863L195.804 247.616L197.356 252.369C202.399 250.722 206.635 247.888 209.918 243.865L206.044 240.704ZM195.804 247.616L194.312 242.844C190.803 243.94 186.588 244.536 181.596 244.536V249.536V254.536C187.355 254.536 192.612 253.852 197.295 252.388L195.804 247.616ZM136.894 477.208L134.278 481.47L134.314 481.491L134.35 481.513L136.894 477.208ZM127.934 466.584L123.368 468.622L123.383 468.656L123.398 468.69L127.934 466.584ZM130.11 424.984L125.817 422.42L125.804 422.442L125.791 422.465L130.11 424.984ZM144.574 411.16L146.86 415.606L146.86 415.606L144.574 411.16ZM180.67 409.496L178.71 414.096L178.761 414.118L178.813 414.138L180.67 409.496ZM192.062 417.432L188.252 420.67L188.295 420.721L188.34 420.772L192.062 417.432ZM198.59 429.08L193.811 430.55L193.828 430.606L193.846 430.661L198.59 429.08ZM198.974 457.752L194.159 456.404L194.159 456.404L198.974 457.752ZM194.622 469.784L190.07 467.715L186.856 474.784H194.622V469.784ZM228.798 469.784V474.784H233.798V469.784H228.798ZM228.798 408.088V403.088H223.798V408.088H228.798ZM239.806 408.088H244.806V403.088H239.806V408.088ZM239.806 479V484H244.806V479H239.806ZM183.358 479L178.368 479.317L178.665 484H183.358V479ZM182.846 470.936L178.667 468.19L177.75 469.586L177.856 471.253L182.846 470.936ZM187.582 459.928L182.777 458.542L182.768 458.573L182.76 458.604L187.582 459.928ZM186.302 429.08L190.774 426.844L190.774 426.844L186.302 429.08ZM177.214 419.352L174.712 423.681L174.733 423.693L174.753 423.705L177.214 419.352ZM148.158 420.376L150.912 424.549L150.941 424.53L150.969 424.511L148.158 420.376ZM138.302 432.024L142.82 434.164L142.827 434.149L142.834 434.134L138.302 432.024ZM136.766 462.36L132.084 464.116L132.111 464.187L132.14 464.258L136.766 462.36ZM142.142 469.656L139.295 473.767L139.385 473.829L139.477 473.887L142.142 469.656ZM155.582 470.424L158.087 474.751L158.12 474.732L158.154 474.711L155.582 470.424ZM159.55 466.072L164.022 468.308L164.022 468.308L159.55 466.072ZM157.63 449.432L154.028 452.9L154.061 452.934L154.094 452.968L157.63 449.432ZM139.454 448.664L136.881 444.377L136.881 444.377L139.454 448.664ZM131.262 455.448L126.393 456.589L128.568 465.866L134.966 458.806L131.262 455.448ZM129.342 447.256L125.545 444.002L123.895 445.928L124.473 448.397L129.342 447.256ZM138.814 439.96L141.05 444.432L141.069 444.422L141.089 444.412L138.814 439.96ZM165.694 442.648L162.158 446.184L162.178 446.203L162.198 446.223L165.694 442.648ZM168.766 470.04L173.192 472.364L173.192 472.364L168.766 470.04ZM161.086 477.848L158.715 473.446L158.691 473.459L158.667 473.472L161.086 477.848ZM149.31 480.536V475.536C145.647 475.536 142.392 474.649 139.437 472.903L136.894 477.208L134.35 481.513C138.904 484.204 143.927 485.536 149.31 485.536V480.536ZM136.894 477.208L139.509 472.946C136.745 471.25 134.356 468.543 132.469 464.478L127.934 466.584L123.398 468.69C125.949 474.183 129.533 478.558 134.278 481.47L136.894 477.208ZM127.934 466.584L132.499 464.546C130.754 460.636 129.734 455.175 129.734 447.896H124.734H119.734C119.734 455.977 120.847 462.975 123.368 468.622L127.934 466.584ZM124.734 447.896H129.734C129.734 439.404 131.4 432.695 134.428 427.503L130.11 424.984L125.791 422.465C121.651 429.561 119.734 438.126 119.734 447.896H124.734ZM130.11 424.984L134.402 427.548C137.625 422.152 141.773 418.222 146.86 415.606L144.574 411.16L142.287 406.714C135.427 410.241 129.933 415.528 125.817 422.42L130.11 424.984ZM144.574 411.16L146.86 415.606C152.096 412.914 157.793 411.552 164.03 411.552V406.552V401.552C156.271 401.552 148.997 403.262 142.287 406.714L144.574 411.16ZM164.03 406.552V411.552C170.031 411.552 174.875 412.463 178.71 414.096L180.67 409.496L182.629 404.896C177.248 402.604 170.998 401.552 164.03 401.552V406.552ZM180.67 409.496L178.813 414.138C182.849 415.753 185.942 417.953 188.252 420.67L192.062 417.432L195.871 414.194C192.378 410.085 187.877 406.994 182.526 404.854L180.67 409.496ZM192.062 417.432L188.34 420.772C190.825 423.54 192.65 426.778 193.811 430.55L198.59 429.08L203.368 427.61C201.798 422.507 199.272 417.98 195.783 414.092L192.062 417.432ZM198.59 429.08L193.846 430.661C195.111 434.456 195.766 438.611 195.766 443.16H200.766H205.766C205.766 437.64 204.969 432.408 203.333 427.499L198.59 429.08ZM200.766 443.16H195.766C195.766 448.267 195.206 452.664 194.159 456.404L198.974 457.752L203.788 459.1C205.13 454.307 205.766 448.976 205.766 443.16H200.766ZM198.974 457.752L194.159 456.404C193.028 460.442 191.663 464.21 190.07 467.715L194.622 469.784L199.173 471.853C200.993 467.849 202.53 463.595 203.788 459.1L198.974 457.752ZM194.622 469.784V474.784H228.798V469.784V464.784H194.622V469.784ZM228.798 469.784H233.798V408.088H228.798H223.798V469.784H228.798ZM228.798 408.088V413.088H239.806V408.088V403.088H228.798V408.088ZM239.806 408.088H234.806V479H239.806H244.806V408.088H239.806ZM239.806 479V474H183.358V479V484H239.806V479ZM183.358 479L188.347 478.683L187.835 470.619L182.846 470.936L177.856 471.253L178.368 479.317L183.358 479ZM182.846 470.936L187.024 473.682C189.338 470.16 191.105 465.982 192.403 461.252L187.582 459.928L182.76 458.604C181.669 462.578 180.278 465.738 178.667 468.19L182.846 470.936ZM187.582 459.928L192.386 461.314C193.824 456.328 194.502 450.725 194.502 444.568H189.502H184.502C184.502 450.016 183.899 454.653 182.777 458.542L187.582 459.928ZM189.502 444.568H194.502C194.502 437.937 193.335 431.967 190.774 426.844L186.302 429.08L181.829 431.316C183.535 434.727 184.502 439.082 184.502 444.568H189.502ZM186.302 429.08L190.774 426.844C188.222 421.742 184.517 417.737 179.674 414.999L177.214 419.352L174.753 423.705C177.761 425.405 180.114 427.885 181.829 431.316L186.302 429.08ZM177.214 419.352L179.715 415.023C174.98 412.287 169.516 411.024 163.518 411.024V416.024V421.024C168.1 421.024 171.767 421.98 174.712 423.681L177.214 419.352ZM163.518 416.024V411.024C156.704 411.024 150.567 412.691 145.346 416.241L148.158 420.376L150.969 424.511C154.282 422.258 158.384 421.024 163.518 421.024V416.024ZM148.158 420.376L145.403 416.203C140.311 419.564 136.436 424.185 133.769 429.914L138.302 432.024L142.834 434.134C144.775 429.964 147.47 426.82 150.912 424.549L148.158 420.376ZM138.302 432.024L133.783 429.884C131.116 435.514 129.846 441.811 129.846 448.664H134.846H139.846C139.846 443.059 140.879 438.262 142.82 434.164L138.302 432.024ZM134.846 448.664H129.846C129.846 454.679 130.508 459.915 132.084 464.116L136.766 462.36L141.447 460.604C140.463 457.979 139.846 454.083 139.846 448.664H134.846ZM136.766 462.36L132.14 464.258C133.752 468.189 136.058 471.526 139.295 473.767L142.142 469.656L144.988 465.545C143.788 464.714 142.509 463.187 141.391 460.462L136.766 462.36ZM142.142 469.656L139.477 473.887C142.608 475.858 146.097 476.832 149.822 476.832V471.832V466.832C147.914 466.832 146.283 466.355 144.806 465.425L142.142 469.656ZM149.822 471.832V476.832C152.757 476.832 155.574 476.206 158.087 474.751L155.582 470.424L153.076 466.097C152.346 466.52 151.323 466.832 149.822 466.832V471.832ZM155.582 470.424L158.154 474.711C160.721 473.171 162.682 470.987 164.022 468.308L159.55 466.072L155.077 463.836C154.54 464.911 153.855 465.629 153.009 466.137L155.582 470.424ZM159.55 466.072L164.022 468.308C165.396 465.56 165.958 462.442 165.958 459.16H160.958H155.958C155.958 461.34 155.581 462.83 155.077 463.836L159.55 466.072ZM160.958 459.16H165.958C165.958 454.057 164.619 449.35 161.165 445.896L157.63 449.432L154.094 452.968C155.078 453.951 155.958 455.73 155.958 459.16H160.958ZM157.63 449.432L161.231 445.964C157.976 442.584 153.77 440.976 149.054 440.976V445.976V450.976C151.334 450.976 152.845 451.672 154.028 452.9L157.63 449.432ZM149.054 445.976V440.976C144.715 440.976 140.628 442.128 136.881 444.377L139.454 448.664L142.026 452.951C144.252 451.616 146.566 450.976 149.054 450.976V445.976ZM139.454 448.664L136.881 444.377C133.449 446.435 130.342 449.017 127.557 452.09L131.262 455.448L134.966 458.806C137.131 456.418 139.484 454.477 142.026 452.951L139.454 448.664ZM131.262 455.448L136.13 454.307L134.21 446.115L129.342 447.256L124.473 448.397L126.393 456.589L131.262 455.448ZM129.342 447.256L133.138 450.51C135.236 448.063 137.85 446.032 141.05 444.432L138.814 439.96L136.577 435.488C132.267 437.643 128.567 440.476 125.545 444.002L129.342 447.256ZM138.814 439.96L141.089 444.412C144.247 442.798 147.481 442.016 150.846 442.016V437.016V432.016C145.848 432.016 141.06 433.197 136.538 435.508L138.814 439.96ZM150.846 437.016V442.016C155.889 442.016 159.489 443.515 162.158 446.184L165.694 442.648L169.229 439.112C164.388 434.272 158.09 432.016 150.846 432.016V437.016ZM165.694 442.648L162.198 446.223C164.894 448.859 166.454 452.548 166.454 457.88H171.454H176.454C176.454 450.412 174.173 443.946 169.189 439.073L165.694 442.648ZM171.454 457.88H166.454C166.454 461.938 165.681 465.159 164.339 467.716L168.766 470.04L173.192 472.364C175.434 468.094 176.454 463.209 176.454 457.88H171.454ZM168.766 470.04L164.339 467.716C163 470.266 161.147 472.136 158.715 473.446L161.086 477.848L163.456 482.25C167.68 479.976 170.947 476.641 173.192 472.364L168.766 470.04ZM161.086 477.848L158.667 473.472C156.324 474.766 153.275 475.536 149.31 475.536V480.536V485.536C154.56 485.536 159.361 484.514 163.504 482.224L161.086 477.848ZM249.142 373.272L250.724 368.529L250.71 368.524L250.696 368.52L249.142 373.272ZM261.047 379.928L257.846 383.769L257.859 383.78L257.873 383.792L261.047 379.928ZM267.319 387.352L263.031 389.924L263.075 389.997L263.121 390.068L267.319 387.352ZM271.671 398.744L266.785 399.81L266.797 399.862L266.809 399.914L271.671 398.744ZM273.335 479V484H278.335V479H273.335ZM262.327 479H257.327V484H262.327V479ZM261.175 403.608L256.237 404.398L256.246 404.455L256.257 404.511L261.175 403.608ZM257.975 393.496L253.563 395.849L253.61 395.938L253.661 396.025L257.975 393.496ZM252.983 387.096L249.58 390.76L249.64 390.815L249.702 390.869L252.983 387.096ZM244.534 382.232L246.04 377.464L246.04 377.464L244.534 382.232ZM222.902 383L220.762 378.481L220.762 378.481L222.902 383ZM215.478 389.528L219.697 392.212L219.726 392.166L219.754 392.12L215.478 389.528ZM214.07 407.832L218.814 406.251L218.797 406.2L218.779 406.15L214.07 407.832ZM217.526 413.848L213.81 417.193L213.853 417.24L213.897 417.287L217.526 413.848ZM223.158 417.816L225.322 413.308L225.288 413.292L225.254 413.276L223.158 417.816ZM230.326 419.992H235.326V415.734L231.123 415.056L230.326 419.992ZM230.326 429.08L229.766 434.048L235.326 434.676V429.08H230.326ZM215.862 424.6L213.456 428.983L215.862 424.6ZM205.622 414.744L209.925 412.197L209.906 412.165L209.887 412.133L205.622 414.744ZM206.262 383.768L210.331 386.674L210.351 386.646L210.37 386.618L206.262 383.768ZM218.038 374.296L220.018 378.888L220.018 378.888L218.038 374.296ZM234.422 371.096V376.096C239.349 376.096 243.723 376.76 247.589 378.024L249.142 373.272L250.696 368.52C245.688 366.882 240.248 366.096 234.422 366.096V371.096ZM249.142 373.272L247.561 378.015C251.312 379.266 254.732 381.175 257.846 383.769L261.047 379.928L264.247 376.087C260.193 372.708 255.677 370.18 250.724 368.529L249.142 373.272ZM261.047 379.928L257.873 383.792C259.768 385.348 261.497 387.367 263.031 389.924L267.319 387.352L271.606 384.78C269.556 381.363 267.104 378.433 264.22 376.064L261.047 379.928ZM267.319 387.352L263.121 390.068C264.571 392.31 265.843 395.491 266.785 399.81L271.671 398.744L276.556 397.678C275.45 392.61 273.82 388.196 271.516 384.636L267.319 387.352ZM271.671 398.744L266.809 399.914C267.792 403.997 268.335 409.455 268.335 416.408H273.335H278.335C278.335 409.025 277.767 402.707 276.532 397.574L271.671 398.744ZM273.335 416.408H268.335V479H273.335H278.335V416.408H273.335ZM273.335 479V474H262.327V479V484H273.335V479ZM262.327 479H267.327V419.992H262.327H257.327V479H262.327ZM262.327 419.992H267.327C267.327 413.101 266.937 407.304 266.092 402.705L261.175 403.608L256.257 404.511C256.948 408.274 257.327 413.4 257.327 419.992H262.327ZM261.175 403.608L266.112 402.818C265.376 398.218 264.17 394.177 262.288 390.967L257.975 393.496L253.661 396.025C254.681 397.764 255.608 400.465 256.237 404.398L261.175 403.608ZM257.975 393.496L262.386 391.143C260.767 388.107 258.737 385.474 256.263 383.323L252.983 387.096L249.702 390.869C251.154 392.132 252.452 393.765 253.563 395.849L257.975 393.496ZM252.983 387.096L256.385 383.432C253.429 380.688 249.958 378.701 246.04 377.464L244.534 382.232L243.029 387C245.596 387.811 247.757 389.067 249.58 390.76L252.983 387.096ZM244.534 382.232L246.04 377.464C242.321 376.29 238.528 375.696 234.678 375.696V380.696V385.696C237.485 385.696 240.263 386.126 243.029 387L244.534 382.232ZM234.678 380.696V375.696C229.533 375.696 224.836 376.552 220.762 378.481L222.902 383L225.043 387.519C227.455 386.376 230.608 385.696 234.678 385.696V380.696ZM222.902 383L220.762 378.481C216.717 380.397 213.462 383.208 211.203 386.936L215.478 389.528L219.754 392.12C220.908 390.216 222.603 388.675 225.043 387.519L222.902 383ZM215.478 389.528L211.26 386.844C208.873 390.594 207.79 394.934 207.79 399.64H212.79H217.79C217.79 396.495 218.5 394.094 219.697 392.212L215.478 389.528ZM212.79 399.64H207.79C207.79 403.168 208.28 406.484 209.362 409.514L214.07 407.832L218.779 406.15C218.154 404.401 217.79 402.256 217.79 399.64H212.79ZM214.07 407.832L209.327 409.413C210.3 412.331 211.788 414.946 213.81 417.193L217.526 413.848L221.243 410.503C220.193 409.337 219.377 407.941 218.814 406.251L214.07 407.832ZM217.526 413.848L213.897 417.287C215.909 419.411 218.322 421.091 221.063 422.356L223.158 417.816L225.254 413.276C223.557 412.493 222.216 411.528 221.156 410.409L217.526 413.848ZM223.158 417.816L220.995 422.324C223.614 423.581 226.473 424.435 229.53 424.928L230.326 419.992L231.123 415.056C228.89 414.696 226.97 414.099 225.322 413.308L223.158 417.816ZM230.326 419.992H225.326V429.08H230.326H235.326V419.992H230.326ZM230.326 429.08L230.887 424.112C226.197 423.582 222.009 422.271 218.269 420.217L215.862 424.6L213.456 428.983C218.42 431.708 223.875 433.383 229.766 434.048L230.326 429.08ZM215.862 424.6L218.269 420.217C214.684 418.249 211.933 415.59 209.925 412.197L205.622 414.744L201.32 417.291C204.261 422.26 208.337 426.172 213.456 428.983L215.862 424.6ZM205.622 414.744L209.887 412.133C207.903 408.893 206.782 404.765 206.782 399.512H201.782H196.782C196.782 406.205 198.222 412.232 201.358 417.355L205.622 414.744ZM201.782 399.512H206.782C206.782 393.997 208.077 389.83 210.331 386.674L206.262 383.768L202.194 380.862C198.474 386.069 196.782 392.397 196.782 399.512H201.782ZM206.262 383.768L210.37 386.618C212.707 383.251 215.874 380.674 220.018 378.888L218.038 374.296L216.059 369.704C210.305 372.185 205.621 375.922 202.155 380.918L206.262 383.768ZM218.038 374.296L220.018 378.888C224.277 377.052 229.056 376.096 234.422 376.096V371.096V366.096C227.843 366.096 221.698 367.274 216.059 369.704L218.038 374.296ZM141.456 708.208L138.841 712.47L138.876 712.491L138.912 712.513L141.456 708.208ZM132.496 697.584L127.93 699.622L127.945 699.656L127.961 699.69L132.496 697.584ZM134.8 657.008L130.518 654.427L130.512 654.436L130.507 654.444L134.8 657.008ZM150.544 642.672L152.757 647.155L152.78 647.144L152.803 647.133L150.544 642.672ZM185.872 638.576L184.957 643.492L185.022 643.504L185.086 643.514L185.872 638.576ZM196.624 641.52L194.767 646.162L194.818 646.183L194.868 646.202L196.624 641.52ZM206.736 646.64L210.107 642.948L209.793 642.66L209.434 642.431L206.736 646.64ZM212.624 652.016L209.253 655.708L209.279 655.733L209.307 655.757L212.624 652.016ZM223.504 666.736L218.98 668.865L218.986 668.878L218.992 668.891L223.504 666.736ZM225.04 700.144L220.471 698.113L220.46 698.138L220.45 698.162L225.04 700.144ZM217.872 708.72L220.479 712.986L220.496 712.976L220.512 712.966L217.872 708.72ZM194.704 708.208L191.777 712.261L191.803 712.28L191.829 712.299L194.704 708.208ZM187.792 699.248L183.115 701.015L183.139 701.078L183.164 701.141L187.792 699.248ZM187.024 673.392L182.179 672.155L182.167 672.204L182.156 672.253L187.024 673.392ZM191.504 662L187.119 659.598L187.119 659.598L191.504 662ZM198.8 651.888L195.63 648.022L195.357 648.245L195.118 648.505L198.8 651.888ZM205.2 646.64L202.628 642.353L202.313 642.541L202.03 642.774L205.2 646.64ZM213.392 642.672L215.178 647.342L215.178 647.342L213.392 642.672ZM223.888 640.112L224.61 645.06L224.652 645.054L224.694 645.047L223.888 640.112ZM277.776 639.088H282.776V634.088H277.776V639.088ZM277.776 648.304V653.304H282.776V648.304H277.776ZM256.016 648.304V643.304H251.016V648.304H256.016ZM256.016 710V715H261.016V710H256.016ZM245.008 710H240.008V715H245.008V710ZM245.008 648.304H250.008V643.304H245.008V648.304ZM228.624 648.688L228.968 653.676L229.053 653.67L229.139 653.661L228.624 648.688ZM221.584 649.712L222.528 654.622L222.619 654.605L222.708 654.584L221.584 649.712ZM215.184 651.632L213.261 647.017L213.261 647.017L215.184 651.632ZM209.168 654.96L211.852 659.178L211.939 659.123L212.023 659.065L209.168 654.96ZM202.128 662.64L206.455 665.145L206.469 665.121L206.483 665.097L202.128 662.64ZM197.776 673.648L192.925 672.435L192.916 672.472L192.908 672.509L197.776 673.648ZM199.056 698.736L203.236 695.993L203.236 695.993L199.056 698.736ZM212.624 700.4L208.994 696.961L208.945 697.013L208.898 697.066L212.624 700.4ZM215.824 694.256L220.684 695.429L220.684 695.429L215.824 694.256ZM212.752 668.528L208.225 670.65L208.245 670.693L208.266 670.736L212.752 668.528ZM201.488 654.576L204.553 650.626L204.459 650.552L204.361 650.484L201.488 654.576ZM188.304 648.688L189.435 643.818L189.435 643.818L188.304 648.688ZM156.432 650.48L154.229 645.992L154.229 645.992L156.432 650.48ZM145.168 659.952L141.076 657.079L141.055 657.108L141.035 657.138L145.168 659.952ZM139.792 673.776L134.858 672.967L134.819 673.204L134.803 673.443L139.792 673.776ZM139.536 677.488L144.521 677.871L144.522 677.858L144.523 677.844L139.536 677.488ZM141.328 693.488L136.661 695.283L136.681 695.335L136.702 695.386L141.328 693.488ZM146.704 700.656L143.968 704.841L144.004 704.864L144.04 704.887L146.704 700.656ZM160.272 701.424L162.777 705.751L162.811 705.732L162.844 705.711L160.272 701.424ZM164.112 697.072L159.64 694.836L159.598 694.919L159.56 695.003L164.112 697.072ZM162.192 680.432L158.59 683.9L158.623 683.934L158.656 683.968L162.192 680.432ZM144.016 679.664L141.444 675.377L141.444 675.377L144.016 679.664ZM135.824 686.448L130.956 687.589L133.13 696.866L139.529 689.806L135.824 686.448ZM133.904 678.256L130.108 675.002L128.457 676.928L129.036 679.397L133.904 678.256ZM143.376 670.96L145.612 675.432L145.632 675.422L145.652 675.412L143.376 670.96ZM170.256 673.648L166.72 677.184L166.74 677.203L166.76 677.223L170.256 673.648ZM173.328 701.04L177.755 703.364L177.755 703.364L173.328 701.04ZM165.648 708.848L163.278 704.446L163.253 704.459L163.23 704.472L165.648 708.848ZM194.96 620.912L191.424 624.448L191.472 624.495L191.521 624.542L194.96 620.912ZM194.96 608.496L198.496 612.032L198.496 612.032L194.96 608.496ZM207.248 608.496L203.712 612.032L203.712 612.032L207.248 608.496ZM207.248 620.912L210.687 624.542L210.736 624.495L210.784 624.448L207.248 620.912ZM153.872 711.536V706.536C150.21 706.536 146.955 705.649 144 703.903L141.456 708.208L138.912 712.513C143.467 715.204 148.489 716.536 153.872 716.536V711.536ZM141.456 708.208L144.071 703.946C141.307 702.25 138.918 699.543 137.031 695.478L132.496 697.584L127.961 699.69C130.511 705.183 134.096 709.558 138.841 712.47L141.456 708.208ZM132.496 697.584L137.062 695.546C135.316 691.636 134.296 686.175 134.296 678.896H129.296H124.296C124.296 686.977 125.409 693.975 127.93 699.622L132.496 697.584ZM129.296 678.896H134.296C134.296 671.186 135.964 664.811 139.093 659.572L134.8 657.008L130.507 654.444C126.297 661.493 124.296 669.71 124.296 678.896H129.296ZM134.8 657.008L139.082 659.589C142.326 654.207 146.843 650.075 152.757 647.155L150.544 642.672L148.331 638.189C140.762 641.925 134.783 647.35 130.518 654.427L134.8 657.008ZM150.544 642.672L152.803 647.133C158.719 644.137 165.81 642.552 174.224 642.552V637.552V632.552C164.547 632.552 155.852 634.38 148.285 638.211L150.544 642.672ZM174.224 637.552V642.552C178.043 642.552 181.617 642.87 184.957 643.492L185.872 638.576L186.787 633.66C182.788 632.916 178.597 632.552 174.224 632.552V637.552ZM185.872 638.576L185.086 643.514C188.487 644.055 191.71 644.94 194.767 646.162L196.624 641.52L198.481 636.878C194.711 635.37 190.767 634.292 186.658 633.638L185.872 638.576ZM196.624 641.52L194.868 646.202C197.925 647.348 200.982 648.89 204.038 650.849L206.736 646.64L209.434 642.431C205.834 640.123 202.149 638.252 198.38 636.838L196.624 641.52ZM206.736 646.64L203.365 650.332L209.253 655.708L212.624 652.016L215.995 648.324L210.107 642.948L206.736 646.64ZM212.624 652.016L209.307 655.757C213.291 659.291 216.52 663.638 218.98 668.865L223.504 666.736L228.028 664.607C225.027 658.229 221.002 652.763 215.941 648.275L212.624 652.016ZM223.504 666.736L218.992 668.891C221.369 673.868 222.6 679.478 222.6 685.808H227.6H232.6C232.6 678.144 231.1 671.039 228.016 664.581L223.504 666.736ZM227.6 685.808H222.6C222.6 691.063 221.811 695.099 220.471 698.113L225.04 700.144L229.609 702.175C231.683 697.509 232.6 691.987 232.6 685.808H227.6ZM225.04 700.144L220.45 698.162C219.19 701.079 217.437 703.103 215.232 704.474L217.872 708.72L220.512 712.966C224.621 710.412 227.647 706.719 229.63 702.126L225.04 700.144ZM217.872 708.72L215.265 704.454C213.113 705.769 210.383 706.536 206.864 706.536V711.536V716.536C211.879 716.536 216.487 715.426 220.479 712.986L217.872 708.72ZM206.864 711.536V706.536C202.653 706.536 199.684 705.597 197.579 704.117L194.704 708.208L191.829 712.299C196.038 715.257 201.176 716.536 206.864 716.536V711.536ZM194.704 708.208L197.631 704.155C195.371 702.522 193.628 700.308 192.42 697.355L187.792 699.248L183.164 701.141C185.028 705.697 187.893 709.457 191.777 712.261L194.704 708.208ZM187.792 699.248L192.469 697.481C191.267 694.3 190.616 690.562 190.616 686.192H185.616H180.616C180.616 691.55 181.415 696.516 183.115 701.015L187.792 699.248ZM185.616 686.192H190.616C190.616 682.016 191.049 678.134 191.892 674.531L187.024 673.392L182.156 672.253C181.121 676.671 180.616 681.323 180.616 686.192H185.616ZM187.024 673.392L191.869 674.629C192.79 671.019 194.131 667.613 195.889 664.402L191.504 662L187.119 659.598C184.952 663.555 183.306 667.744 182.179 672.155L187.024 673.392ZM191.504 662L195.889 664.402C197.649 661.189 199.84 658.146 202.482 655.271L198.8 651.888L195.118 648.505C191.957 651.945 189.285 655.643 187.119 659.598L191.504 662ZM198.8 651.888L201.97 655.754L208.37 650.506L205.2 646.64L202.03 642.774L195.63 648.022L198.8 651.888ZM205.2 646.64L207.772 650.927C210.072 649.548 212.538 648.351 215.178 647.342L213.392 642.672L211.606 638.002C208.443 639.211 205.448 640.66 202.628 642.353L205.2 646.64ZM213.392 642.672L215.178 647.342C217.644 646.399 220.765 645.62 224.61 645.06L223.888 640.112L223.166 635.164C218.819 635.798 214.943 636.726 211.606 638.002L213.392 642.672ZM223.888 640.112L224.694 645.047C228.516 644.423 233.431 644.088 239.504 644.088V639.088V634.088C233.118 634.088 227.622 634.436 223.082 635.177L223.888 640.112ZM239.504 639.088V644.088H277.776V639.088V634.088H239.504V639.088ZM277.776 639.088H272.776V648.304H277.776H282.776V639.088H277.776ZM277.776 648.304V643.304H256.016V648.304V653.304H277.776V648.304ZM256.016 648.304H251.016V710H256.016H261.016V648.304H256.016ZM256.016 710V705H245.008V710V715H256.016V710ZM245.008 710H250.008V648.304H245.008H240.008V710H245.008ZM245.008 648.304V643.304H236.56V648.304V653.304H245.008V648.304ZM236.56 648.304V643.304C233.594 643.304 230.776 643.439 228.11 643.715L228.624 648.688L229.139 653.661C231.422 653.425 233.894 653.304 236.56 653.304V648.304ZM228.624 648.688L228.28 643.7C225.566 643.887 222.957 644.264 220.46 644.84L221.584 649.712L222.708 654.584C224.649 654.136 226.733 653.83 228.968 653.676L228.624 648.688ZM221.584 649.712L220.64 644.802C218.092 645.292 215.63 646.029 213.261 647.017L215.184 651.632L217.107 656.247C218.834 655.528 220.639 654.985 222.528 654.622L221.584 649.712ZM215.184 651.632L213.261 647.017C210.861 648.017 208.545 649.303 206.313 650.855L209.168 654.96L212.023 659.065C213.717 657.887 215.411 656.954 217.107 656.247L215.184 651.632ZM209.168 654.96L206.484 650.742C202.88 653.035 199.995 656.244 197.773 660.183L202.128 662.64L206.483 665.097C208.016 662.38 209.824 660.469 211.852 659.178L209.168 654.96ZM202.128 662.64L197.801 660.135C195.662 663.829 194.048 667.943 192.925 672.435L197.776 673.648L202.627 674.861C203.552 671.161 204.839 667.936 206.455 665.145L202.128 662.64ZM197.776 673.648L192.908 672.509C191.882 676.891 191.368 681.326 191.368 685.808H196.368H201.368C201.368 682.098 201.793 678.427 202.644 674.787L197.776 673.648ZM196.368 685.808H191.368C191.368 691.993 192.27 697.508 194.876 701.479L199.056 698.736L203.236 695.993C202.258 694.502 201.368 691.399 201.368 685.808H196.368ZM199.056 698.736L194.876 701.479C197.554 705.56 201.569 707.832 206.48 707.832V702.832V697.832C205.076 697.832 204.142 697.373 203.236 695.993L199.056 698.736ZM206.48 702.832V707.832C210.215 707.832 213.749 706.641 216.35 703.734L212.624 700.4L208.898 697.066C208.597 697.402 208.036 697.832 206.48 697.832V702.832ZM212.624 700.4L216.254 703.839C218.471 701.498 219.911 698.633 220.684 695.429L215.824 694.256L210.964 693.083C210.542 694.828 209.849 696.059 208.994 696.961L212.624 700.4ZM215.824 694.256L220.684 695.429C221.375 692.568 221.72 689.657 221.72 686.704H216.72H211.72C211.72 688.871 211.468 690.994 210.964 693.083L215.824 694.256ZM216.72 686.704H221.72C221.72 679.294 220.262 672.465 217.238 666.32L212.752 668.528L208.266 670.736C210.533 675.343 211.72 680.632 211.72 686.704H216.72ZM212.752 668.528L217.279 666.406C214.37 660.2 210.103 654.931 204.553 650.626L201.488 654.576L198.423 658.526C202.772 661.901 206.014 665.933 208.225 670.65L212.752 668.528ZM201.488 654.576L204.361 650.484C199.824 647.299 194.838 645.072 189.435 643.818L188.304 648.688L187.173 653.558C191.327 654.523 195.13 656.221 198.615 658.668L201.488 654.576ZM188.304 648.688L189.435 643.818C184.246 642.613 178.744 642.024 172.944 642.024V647.024V652.024C178.067 652.024 182.804 652.544 187.173 653.558L188.304 648.688ZM172.944 647.024V642.024C166.022 642.024 159.736 643.288 154.229 645.992L156.432 650.48L158.635 654.968C162.515 653.064 167.237 652.024 172.944 652.024V647.024ZM156.432 650.48L154.229 645.992C148.832 648.641 144.408 652.333 141.076 657.079L145.168 659.952L149.26 662.825C151.56 659.549 154.645 656.927 158.635 654.968L156.432 650.48ZM145.168 659.952L141.035 657.138C137.86 661.802 135.819 667.107 134.858 672.967L139.792 673.776L144.726 674.585C145.472 670.035 147.015 666.124 149.301 662.766L145.168 659.952ZM139.792 673.776L134.803 673.443C134.718 674.716 134.633 675.946 134.549 677.132L139.536 677.488L144.523 677.844C144.609 676.641 144.695 675.396 144.781 674.109L139.792 673.776ZM139.536 677.488L134.551 677.105C134.461 678.273 134.408 679.311 134.408 680.176H139.408H144.408C144.408 679.675 144.44 678.922 144.521 677.871L139.536 677.488ZM139.408 680.176H134.408C134.408 686.033 135.073 691.155 136.661 695.283L141.328 693.488L145.995 691.693C145.023 689.165 144.408 685.412 144.408 680.176H139.408ZM141.328 693.488L136.702 695.386C138.318 699.323 140.649 702.671 143.968 704.841L146.704 700.656L149.44 696.471C148.322 695.74 147.069 694.309 145.954 691.59L141.328 693.488ZM146.704 700.656L144.04 704.887C147.17 706.858 150.659 707.832 154.384 707.832V702.832V697.832C152.477 697.832 150.846 697.355 149.368 696.425L146.704 700.656ZM154.384 702.832V707.832C157.367 707.832 160.238 707.221 162.777 705.751L160.272 701.424L157.767 697.097C157.064 697.504 156.009 697.832 154.384 697.832V702.832ZM160.272 701.424L162.844 705.711C165.453 704.146 167.407 701.906 168.664 699.141L164.112 697.072L159.56 695.003C159.11 695.993 158.504 696.654 157.7 697.137L160.272 701.424ZM164.112 697.072L168.584 699.308C169.958 696.56 170.52 693.442 170.52 690.16H165.52H160.52C160.52 692.34 160.143 693.83 159.64 694.836L164.112 697.072ZM165.52 690.16H170.52C170.52 685.057 169.181 680.35 165.728 676.896L162.192 680.432L158.656 683.968C159.64 684.951 160.52 686.73 160.52 690.16H165.52ZM162.192 680.432L165.794 676.964C162.539 673.584 158.332 671.976 153.616 671.976V676.976V681.976C155.897 681.976 157.408 682.672 158.59 683.9L162.192 680.432ZM153.616 676.976V671.976C149.277 671.976 145.191 673.128 141.444 675.377L144.016 679.664L146.588 683.951C148.815 682.616 151.128 681.976 153.616 681.976V676.976ZM144.016 679.664L141.444 675.377C138.012 677.435 134.904 680.017 132.119 683.09L135.824 686.448L139.529 689.806C141.693 687.418 144.047 685.477 146.588 683.951L144.016 679.664ZM135.824 686.448L140.692 685.307L138.772 677.115L133.904 678.256L129.036 679.397L130.956 687.589L135.824 686.448ZM133.904 678.256L137.7 681.51C139.798 679.063 142.413 677.032 145.612 675.432L143.376 670.96L141.14 666.488C136.83 668.643 133.13 671.476 130.108 675.002L133.904 678.256ZM143.376 670.96L145.652 675.412C148.81 673.798 152.043 673.016 155.408 673.016V668.016V663.016C150.41 663.016 145.622 664.197 141.1 666.508L143.376 670.96ZM155.408 668.016V673.016C160.451 673.016 164.052 674.515 166.72 677.184L170.256 673.648L173.792 670.112C168.951 665.272 162.653 663.016 155.408 663.016V668.016ZM170.256 673.648L166.76 677.223C169.456 679.859 171.016 683.548 171.016 688.88H176.016H181.016C181.016 681.412 178.736 674.946 173.752 670.073L170.256 673.648ZM176.016 688.88H171.016C171.016 692.938 170.243 696.159 168.901 698.716L173.328 701.04L177.755 703.364C179.997 699.094 181.016 694.209 181.016 688.88H176.016ZM173.328 701.04L168.901 698.716C167.562 701.266 165.71 703.136 163.278 704.446L165.648 708.848L168.019 713.25C172.242 710.976 175.51 707.641 177.755 703.364L173.328 701.04ZM165.648 708.848L163.23 704.472C160.887 705.766 157.837 706.536 153.872 706.536V711.536V716.536C159.123 716.536 163.924 715.514 168.066 713.224L165.648 708.848ZM201.104 623.216V618.216C199.758 618.216 198.988 617.84 198.399 617.282L194.96 620.912L191.521 624.542C194.175 627.056 197.5 628.216 201.104 628.216V623.216ZM194.96 620.912L198.496 617.376C197.925 616.806 197.528 616.043 197.528 614.64H192.528H187.528C187.528 618.357 188.752 621.775 191.424 624.448L194.96 620.912ZM192.528 614.64H197.528C197.528 613.375 197.891 612.636 198.496 612.032L194.96 608.496L191.424 604.96C188.786 607.598 187.528 610.955 187.528 614.64H192.528ZM194.96 608.496L198.496 612.032C199.1 611.427 199.839 611.064 201.104 611.064V606.064V601.064C197.419 601.064 194.063 602.322 191.424 604.96L194.96 608.496ZM201.104 606.064V611.064C202.369 611.064 203.108 611.427 203.712 612.032L207.248 608.496L210.784 604.96C208.145 602.322 204.789 601.064 201.104 601.064V606.064ZM207.248 608.496L203.712 612.032C204.317 612.636 204.68 613.375 204.68 614.64H209.68H214.68C214.68 610.955 213.422 607.598 210.784 604.96L207.248 608.496ZM209.68 614.64H204.68C204.68 616.043 204.283 616.806 203.712 617.376L207.248 620.912L210.784 624.448C213.456 621.775 214.68 618.357 214.68 614.64H209.68ZM207.248 620.912L203.809 617.282C203.22 617.84 202.45 618.216 201.104 618.216V623.216V628.216C204.708 628.216 208.033 627.056 210.687 624.542L207.248 620.912Z" fill="#1C352D" mask="url(#path-19-outside-1_460_387)"/>
</g>
<defs>
<linearGradient id="paint0_linear_460_387" x1="151" y1="123" x2="151" y2="255" gradientUnits="userSpaceOnUse">
<stop offset="0.163462" stop-color="#DC143C"/>
<stop offset="0.865385" stop-color="#737373"/>
</linearGradient>
<linearGradient id="paint1_linear_460_387" x1="151" y1="361" x2="151" y2="493" gradientUnits="userSpaceOnUse">
<stop offset="0.163462" stop-color="#DC143C"/>
<stop offset="0.865385" stop-color="#737373"/>
</linearGradient>
<linearGradient id="paint2_linear_460_387" x1="151" y1="590" x2="151" y2="722" gradientUnits="userSpaceOnUse">
<stop offset="0.163462" stop-color="#DC143C"/>
<stop offset="0.865385" stop-color="#737373"/>
</linearGradient>
<linearGradient id="paint3_linear_460_387" x1="246.515" y1="600.037" x2="246.515" y2="667.682" gradientUnits="userSpaceOnUse">
<stop offset="0.163462" stop-color="#DC143C"/>
<stop offset="0.865385" stop-color="#737373"/>
</linearGradient>
<linearGradient id="paint4_linear_460_387" x1="240.104" y1="575.209" x2="240.104" y2="672.872" gradientUnits="userSpaceOnUse">
<stop offset="0.163462" stop-color="#DC143C"/>
<stop offset="0.865385" stop-color="#737373"/>
</linearGradient>
<linearGradient id="paint5_linear_460_387" x1="239.501" y1="675.867" x2="239.501" y2="738.036" gradientUnits="userSpaceOnUse">
<stop offset="0.163462" stop-color="#DC143C"/>
<stop offset="0.865385" stop-color="#737373"/>
</linearGradient>
<linearGradient id="paint6_linear_460_387" x1="277.815" y1="664" x2="277.815" y2="737.415" gradientUnits="userSpaceOnUse">
<stop offset="0.163462" stop-color="#DC143C"/>
<stop offset="0.865385" stop-color="#737373"/>
</linearGradient>
<linearGradient id="paint7_linear_460_387" x1="301.867" y1="725.5" x2="301.867" y2="787.668" gradientUnits="userSpaceOnUse">
<stop offset="0.163462" stop-color="#DC143C"/>
<stop offset="0.865385" stop-color="#737373"/>
</linearGradient>
<linearGradient id="paint8_linear_460_387" x1="226.5" y1="148.029" x2="226.5" y2="240.152" gradientUnits="userSpaceOnUse">
<stop offset="0.163462" stop-color="#DC143C"/>
<stop offset="0.865385" stop-color="#737373"/>
</linearGradient>
<linearGradient id="paint9_linear_460_387" x1="226.5" y1="123" x2="226.5" y2="148" gradientUnits="userSpaceOnUse">
<stop offset="0.163462" stop-color="#DC143C"/>
<stop offset="0.865385" stop-color="#737373"/>
</linearGradient>
<linearGradient id="paint10_linear_460_387" x1="301.007" y1="256.492" x2="301.007" y2="301.119" gradientUnits="userSpaceOnUse">
<stop offset="0.163462" stop-color="#DC143C"/>
<stop offset="0.865385" stop-color="#737373"/>
</linearGradient>
<linearGradient id="paint11_linear_460_387" x1="342.607" y1="241.131" x2="342.607" y2="357" gradientUnits="userSpaceOnUse">
<stop offset="0.163462" stop-color="#DC143C"/>
<stop offset="0.865385" stop-color="#737373"/>
</linearGradient>
<linearGradient id="paint12_linear_460_387" x1="311.995" y1="124" x2="311.995" y2="149" gradientUnits="userSpaceOnUse">
<stop offset="0.163462" stop-color="#DC143C"/>
<stop offset="0.865385" stop-color="#737373"/>
</linearGradient>
<linearGradient id="paint13_linear_460_387" x1="239.5" y1="378.029" x2="239.5" y2="470.152" gradientUnits="userSpaceOnUse">
<stop offset="0.163462" stop-color="#DC143C"/>
<stop offset="0.865385" stop-color="#737373"/>
</linearGradient>
<linearGradient id="paint14_linear_460_387" x1="239.5" y1="353" x2="239.5" y2="378" gradientUnits="userSpaceOnUse">
<stop offset="0.163462" stop-color="#DC143C"/>
<stop offset="0.865385" stop-color="#737373"/>
</linearGradient>
<linearGradient id="paint15_linear_460_387" x1="314.007" y1="486.492" x2="314.007" y2="531.119" gradientUnits="userSpaceOnUse">
<stop offset="0.163462" stop-color="#DC143C"/>
<stop offset="0.865385" stop-color="#737373"/>
</linearGradient>
<linearGradient id="paint16_linear_460_387" x1="355.607" y1="471.131" x2="355.607" y2="587" gradientUnits="userSpaceOnUse">
<stop offset="0.163462" stop-color="#DC143C"/>
<stop offset="0.865385" stop-color="#737373"/>
</linearGradient>
<linearGradient id="paint17_linear_460_387" x1="324.995" y1="354" x2="324.995" y2="379" gradientUnits="userSpaceOnUse">
<stop offset="0.163462" stop-color="#DC143C"/>
<stop offset="0.865385" stop-color="#737373"/>
</linearGradient>
<linearGradient id="paint18_linear_460_387" x1="115" y1="436.5" x2="287" y2="436.5" gradientUnits="userSpaceOnUse">
<stop offset="0.230769" stop-color="#A8BBA3"/>
<stop offset="1" stop-color="#FFE100"/>
</linearGradient>
<clipPath id="clip0_460_387">
<rect width="402" height="874" fill="white"/>
</clipPath>
</defs>
</svg>
